<svg width="600" height="556" fill="none" xmlns="http://www.w3.org/2000/svg"><path d="M87.866 509.822c117.163 61.203 307.105 61.203 424.268 0 117.162-61.203 117.148-160.425 0-221.628-117.149-61.203-307.105-61.203-424.268 0-117.162 61.203-117.148 160.425 0 221.628z" fill="#F5F5F5"/><path d="M513.742 358.975c22.835 0 41.347-8.821 41.347-19.702 0-10.881-18.512-19.702-41.347-19.702-22.836 0-41.348 8.821-41.348 19.702 0 10.881 18.512 19.702 41.348 19.702zM87.14 474.235c20.935 0 37.907-8.088 37.907-18.065 0-9.978-16.972-18.066-37.908-18.066-20.935 0-37.907 8.088-37.907 18.066 0 9.977 16.972 18.065 37.907 18.065zm281.446 34.734c21.785 0 39.445-8.42 39.445-18.807 0-10.387-17.66-18.807-39.445-18.807s-39.446 8.42-39.446 18.807c0 10.387 17.661 18.807 39.446 18.807zm-195.788-89.994c21.785 0 39.446-8.42 39.446-18.807 0-10.387-17.661-18.807-39.446-18.807-21.785 0-39.445 8.42-39.445 18.807 0 10.387 17.66 18.807 39.445 18.807z" fill="#E6E6E6"/><path d="M404.927 293.284c.965-11.592 27.532-55.079 35.656-61.818 8.124-6.74 22.471-23.771 16.29-33.447-6.18-9.676-24.344-5.37-41.403 24.791-13.227 23.394-17.338 75.13-17.338 75.13l6.795-4.656z" fill="#02897A"/><path d="M401.292 292.193h-.112a.672.672 0 01-.567-.525.692.692 0 01-.007-.272c7.509-48.548 23.464-78.835 48.773-92.594a.698.698 0 01.95.28.7.7 0 01-.279.95c-24.904 13.536-40.62 43.501-48.073 91.588a.701.701 0 01-.685.573z" fill="#fff"/><path d="M407.598 237.045s21.324-36.859 38.984-53.736c9.788-9.355 15.801-15.381 15.269-22.457-.391-5.369-4.852-8.236-14.444-5.872-19.114 4.698-29.364 24.064-35.964 45.751-4.684 15.27-3.845 36.314-3.845 36.314z" fill="#37474F"/><path opacity=".2" d="M407.598 237.045s21.324-36.859 38.984-53.736c9.788-9.355 15.801-15.381 15.269-22.457-.391-5.369-4.852-8.236-14.444-5.872-19.114 4.698-29.364 24.064-35.964 45.751-4.684 15.27-3.845 36.314-3.845 36.314z" fill="#00FFE3"/><path d="M410.073 230.99h-.098a.712.712 0 01-.587-.811c7.592-47.905 36.453-65.943 45.122-70.333a.698.698 0 01.937.307.695.695 0 01.045.534.687.687 0 01-.352.403c-8.516 4.321-36.873 22.051-44.368 69.313a.704.704 0 01-.24.424.707.707 0 01-.459.163z" fill="#fff"/><path d="M527.039 128.244l-4.614-8.669 3.705-10.711v-6.558l-11.354 6.558v6.558l4.88 8.473a.688.688 0 00.336.294l7.047 4.055z" fill="#11B5E4"/><path opacity=".1" d="M527.039 128.244l-4.614-8.669 3.705-10.711v-6.558l-11.354 6.558v6.558l4.88 8.473a.688.688 0 00.336.294l7.047 4.055z" fill="#000"/><path d="M500.696 87.54l31.265-18.178a7.583 7.583 0 016.81 0l2.796 1.608a7.491 7.491 0 013.412 5.901v25.337a7.544 7.544 0 01-3.412 5.901l-31.293 18.177a7.573 7.573 0 01-6.81 0l-2.796-1.608a7.501 7.501 0 01-3.398-5.9V93.413a7.55 7.55 0 013.426-5.873z" fill="#11B5E4"/><path opacity=".3" d="M500.696 87.54l31.265-18.178a7.583 7.583 0 016.81 0l2.796 1.608a7.491 7.491 0 013.412 5.901v25.337a7.544 7.544 0 01-3.412 5.901l-31.293 18.177a7.573 7.573 0 01-6.81 0l-2.796-1.608a7.501 7.501 0 01-3.398-5.9V93.413a7.55 7.55 0 013.426-5.873z" fill="#fff"/><path d="M510.288 126.259c-1.888 1.076-3.412.209-3.412-1.972V98.95a7.532 7.532 0 013.412-5.9l31.294-18.178c1.887-1.091 3.411-.21 3.411 1.971v25.337a7.54 7.54 0 01-3.411 5.901" fill="#11B5E4"/><path d="M497.298 118.75a7.508 7.508 0 003.398 5.9l2.796 1.608a7.594 7.594 0 006.223.266c-1.594.615-2.797-.294-2.797-2.237V98.95a6.988 6.988 0 011.007-3.356l-9.592-5.593a6.991 6.991 0 00-.993 3.356l-.042 25.393z" fill="#11B5E4"/><path opacity=".1" d="M497.298 118.75a7.508 7.508 0 003.398 5.9l2.796 1.608a7.594 7.594 0 006.223.266c-1.594.615-2.797-.294-2.797-2.237V98.95a6.988 6.988 0 011.007-3.356l-9.592-5.593a6.991 6.991 0 00-.993 3.356l-.042 25.393z" fill="#000"/><path d="M521.894 119.533l4.88 8.459a.736.736 0 001.085.204.747.747 0 00.243-.33l5.16-14.891v-6.558l-11.368 6.558v6.558z" fill="#11B5E4"/><path d="M525.949 110.877l-3.496-.923c-3.328-.88-7.299-2.796-7.299-7.089a11.191 11.191 0 015.411-8.543 3.4 3.4 0 015.37 2.572c.349-2.796 2.614-7.187 5.369-8.78 2.992-1.72 5.411-.7 5.411 2.292 0 4.28-3.957 10.795-7.285 15.521l-3.481 4.95z" fill="#fff"/><path d="M63.676 194.788L94.97 176.68a7.504 7.504 0 016.809 0l2.797 1.594a7.552 7.552 0 013.398 5.901v25.337a7.557 7.557 0 01-3.398 5.901l-31.252 18.108a7.533 7.533 0 01-6.823 0l-2.797-1.594a7.54 7.54 0 01-3.44-5.957v-25.281a7.498 7.498 0 013.412-5.901z" fill="#FF7800"/><path opacity=".3" d="M63.676 194.788L94.97 176.68a7.504 7.504 0 016.809 0l2.797 1.594a7.552 7.552 0 013.398 5.901v25.337a7.557 7.557 0 01-3.398 5.901l-31.252 18.108a7.533 7.533 0 01-6.823 0l-2.797-1.594a7.54 7.54 0 01-3.44-5.957v-25.281a7.498 7.498 0 013.412-5.901z" fill="#fff"/><path d="M90.006 235.52l-4.615-8.683 3.72-10.711v-6.558l-11.368 6.614v6.558l4.894 8.39a.714.714 0 00.321.294l7.048 4.096z" fill="#FF7800"/><path opacity=".1" d="M90.006 235.52l-4.615-8.683 3.72-10.711v-6.558l-11.368 6.614v6.558l4.894 8.39a.714.714 0 00.321.294l7.048 4.096z" fill="#000"/><path d="M73.324 233.521c-1.888 1.09-3.412.21-3.412-1.972v-25.337a7.511 7.511 0 013.412-5.886l31.308-18.178c1.874-1.077 3.398-.196 3.398 1.971v25.337a7.561 7.561 0 01-.996 3.356 7.568 7.568 0 01-2.402 2.545" fill="#FF7800"/><path d="M60.264 225.97a7.533 7.533 0 003.412 5.901l2.797 1.594a7.67 7.67 0 006.236.28c-1.608.601-2.797-.308-2.797-2.252v-25.281a6.996 6.996 0 01.993-3.356l-9.578-5.523a6.991 6.991 0 00-1.007 3.356l-.056 25.281z" fill="#FF7800"/><path opacity=".1" d="M60.264 225.97a7.533 7.533 0 003.412 5.901l2.797 1.594a7.67 7.67 0 006.236.28c-1.608.601-2.797-.308-2.797-2.252v-25.281a6.996 6.996 0 01.993-3.356l-9.578-5.523a6.991 6.991 0 00-1.007 3.356l-.056 25.281z" fill="#000"/><path d="M84.874 226.795l4.88 8.39a.722.722 0 00.697.357.73.73 0 00.618-.483l5.16-14.892v-6.558l-11.355 6.558v6.628z" fill="#FF7800"/><path d="M77.1 211.666a6.994 6.994 0 00-3.203 5.593c0 2.041 1.399 2.796 3.203 1.846a7.107 7.107 0 003.202-5.594c.014-2.041-1.385-2.922-3.202-1.845zm11.815-6.838a7.076 7.076 0 00-3.216 5.593c0 2.042 1.398 2.867 3.216 1.846a7.107 7.107 0 003.202-5.593c0-2.042-1.44-2.867-3.202-1.846zm11.802-6.824a7.104 7.104 0 00-3.203 5.594c0 2.041 1.399 2.796 3.203 1.845a7 7 0 003.202-5.593c0-2.055-1.427-2.88-3.202-1.846z" fill="#fff"/><path d="M395.503 11.236L259.562 89.68a13.396 13.396 0 00-6.055 10.487v300.897c0 3.859 2.713 5.425 6.055 3.495l135.941-78.443a13.399 13.399 0 006.054-10.488V14.732c0-3.86-2.712-5.426-6.054-3.496z" fill="#37474F"/><path d="M259.562 89.68l135.941-78.444c2.992-1.72 5.467-.643 5.956 2.363a13.53 13.53 0 00-5.956-9.354l-4.936-2.797a13.382 13.382 0 00-12.109 0L242.517 79.85a12.34 12.34 0 00-4.279 4.516l17.045 9.788a12.347 12.347 0 014.279-4.474z" fill="#455A64"/><path d="M236.462 391.22a13.372 13.372 0 006.055 10.487l4.935 2.796a13.51 13.51 0 0011.075.49c-2.797 1.076-5.02-.532-5.02-3.985V100.125a12.3 12.3 0 011.776-5.97l-17.045-9.789a12.367 12.367 0 00-1.776 5.97V391.22z" fill="#263238"/><path d="M262.82 127.154l129.425-74.683c1.999-1.16 3.635-.223 3.635 2.098v227.794a8.068 8.068 0 01-3.635 6.292L262.82 363.324c-2 1.16-3.636.223-3.636-2.098v-227.78a8.018 8.018 0 013.636-6.292z" fill="#FAFAFA"/><path d="M326.162 62.134a4.719 4.719 0 00-2.126 3.691c0 1.398.951 1.916 2.126 1.23a4.694 4.694 0 002.125-3.69c0-1.357-.951-1.903-2.125-1.231zM306.041 83.78a9.41 9.41 0 00-2.976 3.191 9.409 9.409 0 00-1.219 4.191c0 2.713 1.901 3.817 4.195 2.461a9.417 9.417 0 004.264-7.383c0-2.713-1.915-3.817-4.264-2.46zm10.417-.924c0 1.818 1.398 2.503 3.034 1.538l27.966-16.178a6.493 6.493 0 002.11-2.157 6.49 6.49 0 00.91-2.877c0-1.803-1.398-2.489-3.02-1.524l-27.966 16.178a6.491 6.491 0 00-3.034 5.02z" fill="#263238"/><path d="M245.886 136.159a7.49 7.49 0 013.412 5.901c0 2.167-1.524 3.048-3.412 1.971a7.557 7.557 0 01-3.397-5.915c.028-2.167 1.524-3.034 3.397-1.957zm0 26.245a7.531 7.531 0 013.412 5.901c0 2.181-1.524 3.062-3.412 1.972a7.56 7.56 0 01-2.371-2.519 7.56 7.56 0 01-.998-3.312c0-2.237 1.496-3.118 3.369-2.042z" fill="#37474F"/><path d="M244.838 136.676a7.532 7.532 0 013.412 5.901c0 2.181-1.525 3.062-3.412 1.971a7.554 7.554 0 01-3.412-5.9c0-2.168 1.538-3.049 3.412-1.972zm0 26.26a7.538 7.538 0 013.412 5.901c0 2.181-1.525 3.062-3.412 1.971a7.554 7.554 0 01-3.412-5.901c0-2.181 1.538-3.062 3.412-1.971z" fill="#455A64"/><path d="M327.532 336.043a18.573 18.573 0 00-8.39 14.557c0 5.369 3.762 7.536 8.39 4.866a18.61 18.61 0 005.936-6.283 18.61 18.61 0 002.454-8.288c.014-5.369-3.748-7.536-8.39-4.852z" fill="#263238"/><path d="M289.653 360.08c-1.189 0-1.315-1.398-1.315-1.902v-227.78a7.414 7.414 0 013.286-5.691l129.425-74.682a2.797 2.797 0 011.273-.392c1.188 0 1.314 1.314 1.314 1.888v227.794a7.366 7.366 0 01-3.286 5.677l-129.425 74.682c-.382.243-.82.383-1.272.406z" fill="#fff" stroke="#141414" stroke-miterlimit="10"/><path d="M422.322 50.332c.531 0 .615.741.615 1.189v227.794a6.664 6.664 0 01-2.936 5.076l-129.425 74.682a2.042 2.042 0 01-.923.308c-.532 0-.616-.755-.616-1.203v-227.78a6.679 6.679 0 012.937-5.076L421.399 50.64a1.88 1.88 0 01.923-.308zm0-1.398a3.3 3.3 0 00-1.622.49l-129.425 74.682a8.007 8.007 0 00-3.636 6.292v227.78c0 1.65.825 2.601 2.014 2.601a3.334 3.334 0 001.622-.503L420.7 285.607a8.027 8.027 0 003.635-6.292V51.521c0-1.636-.825-2.587-2.013-2.587z" fill="#37474F" stroke="#141414" stroke-miterlimit="10"/><path d="M424.293 51.52c0-2.32-1.622-3.257-3.635-2.097l-129.425 74.683a8.007 8.007 0 00-3.636 6.292v18.667l136.696-78.877V51.52z" fill="#37474F"/><path opacity=".1" d="M424.293 51.52c0-2.32-1.622-3.257-3.635-2.097l-129.425 74.683a8.007 8.007 0 00-3.636 6.292v18.667l136.696-78.877V51.52z" fill="#000"/><path d="M301.902 128.412a1.492 1.492 0 00-1.399.182 5.591 5.591 0 00-2.489 4.307 1.396 1.396 0 00.546 1.314 1.404 1.404 0 001.398-.196 5.588 5.588 0 002.475-4.293 1.401 1.401 0 00-.531-1.314z" fill="#fff"/><path d="M304.852 123.644l-.308.182v-.629c0-.881-.615-1.245-1.398-.797l-5.873 3.383a3.085 3.085 0 00-1.398 2.392v.643l-.322.181a4.082 4.082 0 00-1.845 3.189v5.691c0 1.174.825 1.664 1.845 1.076l9.271-5.355a4.087 4.087 0 001.846-3.202v-5.719c.028-1.147-.797-1.622-1.818-1.035zm-4.363 11.298c-.451.276-.967.43-1.496.448a1.965 1.965 0 01-.979-.252 2.465 2.465 0 01-1.076-2.237 6.536 6.536 0 013.02-5.216 2.388 2.388 0 012.475-.196 2.424 2.424 0 011.063 2.238 6.578 6.578 0 01-3.007 5.215zm4.195-7.592c-.475.265-.853 0-.853-.504a1.874 1.874 0 01.853-1.482c.476-.28.867 0 .867.489a1.912 1.912 0 01-.811 1.497h-.056zm112.171-70.082l-9.047 5.215a3.987 3.987 0 00-1.804 3.118v5.594c0 1.132.811 1.608 1.804 1.034l5.383-3.104 2.111 2.111a.352.352 0 00.529-.062.356.356 0 00.059-.19V67.56l.965-.56a3.977 3.977 0 001.845-3.117v-5.594c0-1.132-.853-1.594-1.845-1.02z" fill="#fff"/><path d="M305.062 145.737c4.726-2.685 8.557-.503 8.557 4.894a18.805 18.805 0 01-8.557 14.71c-4.74 2.797-8.572.545-8.572-4.894a18.65 18.65 0 018.572-14.71zm17.031-6.586l28.399-16.388c1.678-.965 3.034-.28 3.034 1.524a6.487 6.487 0 01-3.034 5.034l-28.399 16.388c-1.664.965-3.02.28-3.02-1.524a6.502 6.502 0 013.02-5.034z" fill="#37474F"/><path opacity=".7" d="M322.093 139.151l28.399-16.388c1.678-.965 3.034-.28 3.034 1.524a6.487 6.487 0 01-3.034 5.034l-28.399 16.388c-1.664.965-3.02.28-3.02-1.524a6.502 6.502 0 013.02-5.034z" fill="#fff"/><path d="M321.142 150.771l19.478-11.187c1.147-.657 2.07-.195 2.07 1.049a4.467 4.467 0 01-2.07 3.454l-19.478 11.186c-1.147.657-2.069.182-2.069-1.063a4.448 4.448 0 012.069-3.439z" fill="#37474F"/><path opacity=".7" d="M321.142 150.771l19.478-11.187c1.147-.657 2.07-.195 2.07 1.049a4.467 4.467 0 01-2.07 3.454l-19.478 11.186c-1.147.657-2.069.182-2.069-1.063a4.448 4.448 0 012.069-3.439z" fill="#fff"/><path d="M305.062 292.752c4.726-2.684 8.557-.489 8.557 4.894a18.804 18.804 0 01-8.557 14.71c-4.74 2.797-8.572.546-8.572-4.894a18.705 18.705 0 018.572-14.71zm17.031-6.571l28.399-16.402c1.678-.965 3.034-.28 3.034 1.524a6.491 6.491 0 01-3.034 5.034l-28.399 16.402c-1.664.964-3.02.279-3.02-1.539a6.503 6.503 0 013.02-5.019z" fill="#37474F"/><path opacity=".7" d="M322.093 286.181l28.399-16.402c1.678-.965 3.034-.28 3.034 1.524a6.491 6.491 0 01-3.034 5.034l-28.399 16.402c-1.664.964-3.02.279-3.02-1.539a6.503 6.503 0 013.02-5.019z" fill="#fff"/><path d="M321.142 297.786L340.62 286.6c1.147-.657 2.07-.196 2.07 1.049a4.467 4.467 0 01-2.07 3.454l-19.478 11.186c-1.147.657-2.069.182-2.069-1.049a4.426 4.426 0 01.621-1.974c.36-.6.856-1.107 1.448-1.48z" fill="#37474F"/><path opacity=".7" d="M321.142 297.786L340.62 286.6c1.147-.657 2.07-.196 2.07 1.049a4.467 4.467 0 01-2.07 3.454l-19.478 11.186c-1.147.657-2.069.182-2.069-1.049a4.426 4.426 0 01.621-1.974c.36-.6.856-1.107 1.448-1.48z" fill="#fff"/><path d="M302.405 173.479l107.542-62.084c1.678-.965 3.034-.182 3.034 1.748v107.402a6.715 6.715 0 01-3.034 5.258L302.405 288.25c-1.678.965-3.02.182-3.02-1.748v-107.78a6.667 6.667 0 013.02-5.243z" fill="#F5F5F5"/><path d="M341.879 198.075a2.667 2.667 0 00-2.514-1.148 2.675 2.675 0 00-2.185 1.693l-37.753 71.704v16.178c0 1.93 1.398 2.713 3.02 1.748l107.542-62.126a6.703 6.703 0 003.034-5.257v-35.796l-20.429-36.286c-1.132-2.027-2.712-1.901-3.537.266l-27.197 72.081-19.981-23.057z" fill="#37474F"/><path opacity=".3" d="M341.879 198.075a2.667 2.667 0 00-2.514-1.148 2.675 2.675 0 00-2.185 1.693l-37.753 71.704v16.178c0 1.93 1.398 2.713 3.02 1.748l107.542-62.126a6.703 6.703 0 003.034-5.257v-35.796l-20.429-36.286c-1.132-2.027-2.712-1.901-3.537.266l-27.197 72.081-19.981-23.057z" fill="#00564C"/><path d="M310.725 202.535c9.48-5.439 17.185-18.695 17.185-29.601 0-5.594-2.014-9.425-5.216-11.187l-20.289 11.704a6.673 6.673 0 00-3.02 5.244v25.364c3.02 1.357 6.977.937 11.34-1.524z" fill="#37474F"/><path opacity=".6" d="M310.725 202.535c9.48-5.439 17.185-18.695 17.185-29.601 0-5.594-2.014-9.425-5.216-11.187l-20.289 11.704a6.673 6.673 0 00-3.02 5.244v25.364c3.02 1.357 6.977.937 11.34-1.524z" fill="#fff"/><path d="M302.405 321.054l107.542-62.098c1.678-.965 3.034-.28 3.034 1.538a6.495 6.495 0 01-3.034 5.02l-107.542 62.098c-1.678.965-3.02.279-3.02-1.538a6.442 6.442 0 013.02-5.02z" fill="#37474F"/><path opacity=".6" d="M302.405 321.054l107.542-62.098c1.678-.965 3.034-.28 3.034 1.538a6.495 6.495 0 01-3.034 5.02l-107.542 62.098c-1.678.965-3.02.279-3.02-1.538a6.442 6.442 0 013.02-5.02z" fill="#fff"/><path d="M302.405 334.17l107.542-62.056c1.678-.965 3.034-.28 3.034 1.538a6.488 6.488 0 01-3.034 5.02L302.405 340.77c-1.678.964-3.02.279-3.02-1.539a6.453 6.453 0 013.02-5.061z" fill="#37474F"/><path opacity=".6" d="M302.405 334.17l107.542-62.056c1.678-.965 3.034-.28 3.034 1.538a6.488 6.488 0 01-3.034 5.02L302.405 340.77c-1.678.964-3.02.279-3.02-1.539a6.453 6.453 0 013.02-5.061z" fill="#fff"/><path d="M318.989 115.017l76.723-44.256c2.35-1.398 4.195-.252 4.195 2.447a9.304 9.304 0 01-4.195 7.327l-76.709 44.13c-2.349 1.398-4.195.28-4.195-2.377a9.305 9.305 0 014.181-7.271z" fill="#FAFAFA"/><path d="M544.406 198.956l5.439 9.969-8.459 7.257-7.761-12.29 10.781-4.936z" fill="#F28F8F"/><path d="M523.991 176.737c5.397 0 11.34 2.013 13.382 6.25l8.389 17.395s-4.768 6.991-12.332 6.488l-9.439-30.133z" fill="#E0E0E0"/><path d="M543.986 210.477c1.58-2.936 1.972-3.076 2.909-3.719.937-.643 6.698-1.496 9.089-1.706 2.796-.238 3.817.28 3.034 2.699a121.722 121.722 0 01-7.886 17.702c-.755.993-.895 1.916-4.069 2.237-2.951.28-6.656.448-7.747.504-1.09.056-2.601.349-1.636-2.867a105.135 105.135 0 014.335-10.669c1.216-2.67 1.971-4.181 1.971-4.181z" fill="#37474F"/><path d="M480.98 309.406c-1.398-.699-2.195 1.006-3.412 2.377a10.11 10.11 0 00-2.391 3.579c-.294 1.608 1.175 4.195 2.797 5.594 1.622 1.398 3.495 2.419 4.083 5.495a7.522 7.522 0 004.977 6.292c3.496 1.51 8.18 1.021 9.788 0 1.874-1.216.154-2.559-2.475-6.334-3.439-4.922-6.124-8.39-6.124-13.046l-7.243-3.957z" fill="#263238"/><path d="M483.735 305.365l-2.797 4.195a3.96 3.96 0 00.951 5.509l.084.07a4.295 4.295 0 005.411-.853l4.419-4.81-8.068-4.111z" fill="#FFA8A7"/><path d="M535.667 224.488c.181 5.286-1.315 26.637-4.964 36.076-3.65 9.438-5.761 15.311-6.908 17.283-1.146 1.971-34.23 34.16-34.23 34.16s-5.593-.406-6.502-5.845c0 0 13.55-23.044 16.486-27.77 2.936-4.726 13.34-11.969 13.34-11.969l-.951-41.334 23.729-.601z" fill="#37474F"/><path d="M486.657 219.342c0-.908 2.796-11.354 4.195-16.178l10.249 3.524-2.405 7.607-9.019 9.326a3.8 3.8 0 01-3.02-4.279zm41.721 117.633l6.995-1.59-2.316-10.185-6.995 1.59 2.316 10.185z" fill="#FFA8A7"/><path d="M535.667 224.488h-33.559c-.733 4.9-1.154 9.841-1.259 14.794-.265 14.542 13.27 40.956 13.27 40.956a55.571 55.571 0 00.867 17.604c2.964 11.578 11.047 31.196 11.047 31.196s5.075.713 7.578-2.209c0 0-4.474-39.81-5.677-50.003-1.3-11.047-4.656-31.196-4.656-31.196a51.162 51.162 0 005.999-7.187 35.8 35.8 0 006.376-13.983" fill="#37474F"/><path d="M512.917 177.03c-6.432 1.552-15.2 3.566-17.731 10.529-2.53 6.964-6.18 19.311-6.18 19.311 1.398 2.447 9.159 4.474 11.857 3.062l1.259-4.195v18.709c5.034 5.481 22.568 8.026 33.559 0v-34.957c0-5.593-3.105-12.305-11.676-12.794l-11.088.335z" fill="#11B5E4"/><path d="M502.122 205.779l3.23-10.165-3.23 14.709v-4.544z" fill="#E0E0E0"/><path d="M510.498 148.463a3.848 3.848 0 00-3.16 1.119c-1.399 1.398-1.077 3.957 0 9.872l4.194.475-1.034-11.466zm24.483-1.706a6.63 6.63 0 002.573-.489c1.287-.741 1.622.727.909 2a5.983 5.983 0 01-4.866 3.244c0-.182-1.202-3.286-1.202-3.286l2.586-1.469z" fill="#263238"/><path d="M512.469 159.929c-.615.378-1.51-.825-2.279-1.622a2.706 2.706 0 00-2.468-.897 2.695 2.695 0 00-2.063 1.625c-1.272 2.684 1.622 6.264 3.328 7.438a2.96 2.96 0 003.482.308l.448 10.277a10.972 10.972 0 003.344 4.176 10.98 10.98 0 004.919 2.103c6.041.811 4.797-4.195 2.797-6.6v-3.734c1.512.32 3.065.395 4.6.224.783-.21 2.657-2.475 3.874-5.02a22.809 22.809 0 001.608-16.471c-2.168-9.201-12.054-9.481-17.94-5.775-5.887 3.705-3.65 13.968-3.65 13.968z" fill="#FFA8A7"/><path d="M512.469 160.978c-.308 0-1.496-1.971-2.279-2.671-1.077-.978.308-9.788.308-9.788a6.05 6.05 0 011.048-5.593c2.126-2.237 6.237-1.859 9.243-1.957a27.296 27.296 0 0010.767-2.168c4.278-1.859 4.6-2.069 5.117-.195a10.424 10.424 0 01-1.817 9.06l-1.399 2.266s-1.3 1.09-5.285 1.58c-3.985.489-10.781-1.664-11.634-1.776-1.16-.154-1.398.965-2.027 4.027-.532 2.643-.979 7.201-2.042 7.215z" fill="#263238"/><path d="M510.512 149.163l-3.776-2.028a2.091 2.091 0 011.201-1.057 2.093 2.093 0 011.596.106 2.254 2.254 0 01.979 2.979z" fill="#263238"/><path d="M523.977 173.003a43.299 43.299 0 01-7.537-2.167 6.539 6.539 0 01-2.698-2.671 8.727 8.727 0 001.538 3.146c1.398 1.832 8.697 3.175 8.697 3.175v-1.483z" fill="#F28F8F"/><path d="M524.159 159.734a1.15 1.15 0 01-1.119 1.16 1.131 1.131 0 01-.436-.098 1.134 1.134 0 01-.606-.635 1.148 1.148 0 01-.076-.441 1.142 1.142 0 01.321-.81c.209-.218.496-.344.797-.351a1.155 1.155 0 01.803.356c.104.109.185.237.239.378.055.14.081.29.077.441zm-1.189-4.237l-2.391 1.398a1.396 1.396 0 01.134-1.564c.117-.144.262-.264.426-.352a1.396 1.396 0 011.831.518z" fill="#263238"/><path d="M523.474 167.242l2.559.965a1.399 1.399 0 01-1.734.839 1.404 1.404 0 01-.788-.73 1.406 1.406 0 01-.037-1.074z" fill="#F28F8F"/><path d="M534.143 156.434l-2.182-1.678a1.397 1.397 0 011.902-.294 1.397 1.397 0 01.28 1.972zm-.672 2.978a1.142 1.142 0 01-1.118 1.16 1.135 1.135 0 01-.803-.355 1.144 1.144 0 01-.316-.819 1.146 1.146 0 011.119-1.161 1.158 1.158 0 011.118 1.175z" fill="#263238"/><path d="M528.2 159.272l-1.049 6.656 3.678-.433-2.629-6.223z" fill="#F28F8F"/><path d="M534.576 331.988l-.224-1.007c.727.14 3.873 5.356 6.992 7.621 3.411 2.475 6.362 3.943 7.886 5.062 2.041 1.496-.909 4.558-5.929 4.838-2.489.126-6.991-.63-8.389-1.958-1.399-1.328-2.405-3.524-3.524-4.474-1.119-.951-3.342-1.79-4.111-3.007a8.94 8.94 0 01-.434-3.761c0-1.314.098-2.797.546-2.727l.168.755a8.608 8.608 0 004.194.937c1.217-.056 3.412-.321 2.825-2.279zm-7.509-61.93s-2.978-21.156-3.775-24.428a33.791 33.791 0 006.628-4.74 56.192 56.192 0 01-4.531 5.663l1.678 23.505zm-17.968-.741s3.58 8.907 5.034 10.879c0 0-.363 6.795-.322 8.166l-1.873 1.635a42.919 42.919 0 01.839-9.158 55.271 55.271 0 01-3.678-11.522z" fill="#263238"/><path d="M498.738 214.295s28.203 3.02 31.517 1.999c3.314-1.02 7.761-4.306 10.096-5.705 2.335-1.398 4.111-1.482 4.111-.908 0 .573-2.042 3.691-2.503 4.991-.461 1.301 2.195 1.301 5.705.49 3.51-.811 4.908-2.797 5.817-1.65.909 1.146-1.944 6.991-7.761 9.187-5.817 2.195-10.137.727-14.947.936-4.81.21-34.44 2.098-41.11 0a5.89 5.89 0 012.307-5.691 21.28 21.28 0 016.768-3.649zM342.382 349.019c.07-.909 1.79-10.697 2.964-16.178l11.508 3.524-1.846 7.676-9.564 9.257a3.803 3.803 0 01-3.062-4.279z" fill="#FFA8A7"/><path d="M367.607 266.157h5.593a15.562 15.562 0 0115.563 15.563v39.655h-36.719V281.72a15.566 15.566 0 0115.563-15.563z" fill="#263238"/><path d="M398.048 328.45l5.439 9.97-8.474 7.243-7.746-12.291 10.781-4.922z" fill="#F28F8F"/><path d="M377.633 306.218c5.397 0 11.34 2.013 13.381 6.25l8.39 17.394s-4.768 6.992-12.333 6.503l-9.438-30.147z" fill="#455A64"/><path d="M381.995 478.724a49.259 49.259 0 006.237 6.879c.367.296.66.674.853 1.105.237.727.545 2.475-2.685 3.188a11.686 11.686 0 01-9.494-2.055c-2.364-1.902-2.084-5.244-4.265-7.439-1.622-1.608-3.817-2.238-5.034-4.195-.853-1.398-.391-3.062.378-5.118.769-2.055 1.314-3.929 2.055-3.663l-.252 1.034c.769 1.636 5.593 2.671 7.957 1.888a90.882 90.882 0 004.25 8.376z" fill="#263238"/><path d="M383.897 481.129a32.919 32.919 0 01-1.902-2.405 57.863 57.863 0 01-3.314-6.39 5.733 5.733 0 01-.307-4.195l1.594-5.384-8.39-1.929-1.818 7.536c-.391 1.72.853 3.426 3.132 5.915 2.28 2.489 4.908 7.97 6.992 9.523 2.083 1.552 3.789 1.705 4.852 1.174 1.063-.531 1.328-1.021-.839-3.845z" fill="#FFA8A7"/><path d="M359.427 483.464v-1.189c.475 1.399 2.629 7.355 5.901 10.348 2.615 2.363 6.166 5.117 7.061 7.76.895 2.643-4.936 3.678-7.369 3.244a15.003 15.003 0 01-8.473-4.544c-1.399-1.72-2.294-3.762-3.3-5.118-1.007-1.356-3.3-2.797-3.832-4.419a9.96 9.96 0 01.462-4.334c.391-1.399.797-3.063 1.3-2.937v.979a6.625 6.625 0 004.195 1.398c1.147 0 4.069-.265 4.055-1.188z" fill="#263238"/><path d="M367.691 494.706l-2.363-2.097a24.225 24.225 0 01-5.034-8.04 11.33 11.33 0 01-.867-4.349v-4.712h-8.25v7.872c.392 1.72 4.195 6.278 6.334 9.257a12.045 12.045 0 007.467 4.978c3.146.419 4.782-.56 2.713-2.909z" fill="#FFA8A7"/><path d="M352.813 355.157c-6.39 13.983.238 63.217.238 63.217-.196 2.279-2.797 6.74-3.748 16.779-1.146 11.802 1.79 41.417 1.79 41.417a8.908 8.908 0 008.39.336s7.872-44.619 9.355-56.351l4.726-37.642 6.991 36.733a46.67 46.67 0 00-4.614 9.173c-1.664 5.188-5.034 34.747-5.034 34.747a10.11 10.11 0 008.53 2.503s16.15-40.55 16.877-48.828c.433-4.964-6.81-64.069-6.81-64.069l-36.691 1.985z" fill="#37474F"/><path d="M373.508 382.857l1.118-8.082s8.796-1.818 12.781-5.593a22.752 22.752 0 01-10.39 6.908l-1.174 7.802 1.398 18.08-3.733-19.115z" fill="#263238"/><path d="M364.167 306.595a16.186 16.186 0 00-10.836 8.865 13.98 13.98 0 00-.392 10.571l5.635 16.542s-2.671 6.474-5.789 12.584c14.361 8.013 32.273 3.804 36.593-2.041.182-1.245-.07-6.838.28-13.186.364-6.782 1.3-14.444.238-18.625-1.986-7.788-5.691-15.087-13.06-15.087l-12.669.377z" fill="#F03E3D"/><path d="M361.972 306.595c-4.894.685-12.081 1.678-14.57 13.312-2.489 11.634-3.23 15.898-3.23 15.898a16.268 16.268 0 0012.137 4.643l2.531-8.949 3.132-24.904z" fill="#455A64"/><path d="M364.755 316.411a6.436 6.436 0 01-4.549-1.884 6.43 6.43 0 01-1.884-4.548v-18.723h6.433v25.155z" fill="#263238"/><path d="M382.736 273.582c1.944 1.146 4.335 6.026 4.097 16.248-.195 8.669-3.006 10.822-4.418 11.438-1.412.615-4.125.237-6.768-.21v5.201s3.65 4.195 3.426 6.642c-.224 2.447-5.286 2.951-8.711.615a22.374 22.374 0 01-5.594-5.872v-12.585a3.324 3.324 0 01-4.712.448c-2.922-1.944-3.034-6.74-1.328-8.39 1.706-1.65 5.355-1.175 6.04 1.202a20.834 20.834 0 009.788-2.936 15.75 15.75 0 008.18-11.801z" fill="#FFA8A7"/><path d="M377.157 287.662a1.087 1.087 0 01-.651 1.011 1.095 1.095 0 01-1.186-.203 1.093 1.093 0 01.099-1.673c.172-.127.378-.2.592-.211a1.101 1.101 0 011.146 1.076z" fill="#263238"/><path d="M377.451 295.003l2.531.811a1.305 1.305 0 01-.63.808 1.302 1.302 0 01-1.02.101 1.399 1.399 0 01-.881-1.72z" fill="#F28F8F"/><path d="M386.092 284.306l-2.195-1.524a1.287 1.287 0 011.832-.377 1.4 1.4 0 01.363 1.901zm-.503 2.559a1.12 1.12 0 01-1.035 1.189 1.134 1.134 0 01-1.146-1.077 1.085 1.085 0 01.621-1.042c.13-.062.27-.097.413-.104a1.08 1.08 0 01.788.279 1.106 1.106 0 01.359.755z" fill="#263238"/><path d="M380.443 286.25l.182 6.558 3.454-1.077-3.636-5.481zm-4.796 14.808c-2.796-.364-8.529-2.014-9.424-4.279a5.819 5.819 0 002.013 2.894c1.706 1.469 7.411 3.133 7.411 3.133v-1.748z" fill="#F28F8F"/><path d="M397.614 339.958c1.58-2.936 1.972-3.062 2.923-3.705.95-.644 6.697-1.511 9.088-1.72 2.797-.238 3.818.279 3.035 2.712a123.645 123.645 0 01-7.942 17.689c-.756 1.006-.909 1.929-4.07 2.237-3.16.308-6.669.447-7.76.517-1.091.07-2.601.336-1.622-2.88a106.399 106.399 0 014.321-10.669c1.272-2.643 2.027-4.181 2.027-4.181z" fill="#37474F"/><path d="M355.008 344.097s25.575 2.699 28.889 1.678 7.76-4.335 10.152-5.705c2.391-1.37 4.11-1.482 4.11-.923 0 .56-2.041 3.706-2.516 4.992-.476 1.287 2.209 1.3 5.705.489 3.495-.811 4.908-2.796 5.83-1.649.923 1.146-1.943 6.991-7.76 9.186-5.817 2.196-10.138.741-14.948.937-4.81.196-32.356 2.349-39.026.252a5.89 5.89 0 012.307-5.691 20.397 20.397 0 017.257-3.566z" fill="#FFA8A7"/><path d="M356.854 337.525a86.852 86.852 0 002.797-9.075s-.462 6.754-2.363 10.375l-.434-1.3z" fill="#37474F"/><path d="M149.922 254.369l-4.544 9.816 8.459 7.243 7.313-12.346-11.228-4.713z" fill="#F28F8F"/><path d="M170.785 231.913c-5.398 0-11.34 2.028-13.382 6.25-2.041 4.223-8.39 17.409-8.39 17.409s4.769 6.991 12.333 6.488l9.439-30.147z" fill="#37474F"/><path d="M194.192 387.668h-7.467v10.864h7.467v-10.864zm-26.252-13.443l-7.463.257.374 10.858 7.462-.256-.373-10.859z" fill="#FFA8A7"/><path d="M193.688 281.594c0 7.131.923 53.219.923 53.219.182 2.041 2.098 5.831 1.678 13.703-.559 10.697-1.482 40.41-1.482 40.41s-3.496 3.468-8.39 0c0 0-6.767-40.382-8.096-50.981-1.174-9.243-3.146-34.37-3.146-34.37l-6.921 29.574s1.216 6.991 1.496 11.857-1.273 33.265-1.273 33.265a8.178 8.178 0 01-8.124.308s-5.984-41.417-6.753-45.85c-.769-4.432 5.243-51.135 5.243-51.135h34.845z" fill="#37474F"/><path d="M182.46 232.249h.112a14.789 14.789 0 0111.186 14.388v34.957c-5.229 5.691-23.463 8.39-34.957 0v-36.355c0-5.803 3.23-12.795 12.137-13.312l11.522.322z" fill="#02897A"/><path d="M184.977 202.507a4 4 0 013.286 1.161c1.398 1.398 1.119 4.125 0 10.263l-4.362.504 1.076-11.928zm-25.463-1.706a6.972 6.972 0 01-2.726-.545c-1.398-.769-1.692.755-.965 2.07a6.243 6.243 0 005.076 3.369c0-.181 1.244-3.397 1.244-3.397l-2.629-1.497z" fill="#263238"/><path d="M182.922 214.434c.657.392 1.58-.853 2.377-1.691a2.793 2.793 0 013.865-.365c.375.299.666.689.847 1.134 1.398 2.796-1.692 6.516-3.454 7.732a3.102 3.102 0 01-3.635.322l-.462 10.683a11.417 11.417 0 01-8.599 6.53c-6.278.853-4.978-4.321-2.923-6.866v-3.887c-1.565.34-3.175.425-4.768.251-.825-.223-2.796-2.586-4.041-5.229-1.398-2.964-3.761-8.222-1.664-17.129 2.252-9.578 12.585-9.872 18.653-6.013 6.069 3.86 3.804 14.528 3.804 14.528z" fill="#FFA8A7"/><path d="M182.922 215.525c.335 0 1.566-2.041 2.377-2.796 1.118-1.021-.322-10.236-.322-10.236s1.133-3.482-1.077-5.803c-2.209-2.321-6.502-1.929-9.634-2.041a28.082 28.082 0 01-11.186-2.251c-4.446-1.93-4.782-2.154-5.327-.21a10.835 10.835 0 001.887 9.424l2.21.811s1.188 1.063 5.341 1.566a62.43 62.43 0 0011.494-.209c1.202-.168 1.398.992 2.111 4.194.56 2.797 1.035 7.537 2.126 7.551z" fill="#263238"/><path d="M184.963 203.234l3.929-2.111a2.147 2.147 0 00-2.133-1.226 2.145 2.145 0 00-.831.247 2.352 2.352 0 00-.965 3.09z" fill="#263238"/><path d="M170.952 228.026a43.56 43.56 0 007.845-2.251 6.641 6.641 0 002.796-2.797 9.076 9.076 0 01-1.594 3.272c-1.482 1.902-9.061 3.3-9.061 3.3l.014-1.524z" fill="#F28F8F"/><path d="M172.351 212.98a1.172 1.172 0 002.019.788 1.17 1.17 0 00.233-1.281 1.168 1.168 0 00-1.919-.346 1.188 1.188 0 00-.333.839zm1.23-4.39l2.503 1.398a1.508 1.508 0 00-.587-1.985 1.396 1.396 0 00-1.916.587z" fill="#263238"/><path d="M172.435 220.88l-2.657 1.007a1.393 1.393 0 001.254.962c.186.01.374-.017.55-.081a1.485 1.485 0 00.853-1.888z" fill="#F28F8F"/><path d="M161.961 209.554l2.252-1.761a1.409 1.409 0 00-.928-.575 1.39 1.39 0 00-1.058.267 1.513 1.513 0 00-.266 2.069zm.7 3.105a1.186 1.186 0 001.16 1.202 1.204 1.204 0 001.175-1.216c.018-.164.001-.33-.05-.487a1.163 1.163 0 00-.639-.714 1.18 1.18 0 00-.958 0 1.187 1.187 0 00-.639.714 1.164 1.164 0 00-.049.487v.014z" fill="#263238"/><path d="M168.603 211.554l-.391 7.005-3.65-1.244 4.041-5.761z" fill="#F28F8F"/><path d="M186.725 394.841v-1.077c-.713.308-2.377 6.642-5.327 9.341-2.364 2.139-5.594 4.628-6.391 6.991-.797 2.363 4.475 3.86 6.67 3.468 2.559-.447 6.992-2.251 8.096-3.915 1.105-1.664 1.636-4.125 2.531-5.356.895-1.23 2.992-2.586 3.482-3.999a9.065 9.065 0 00-.434-3.915c-.349-1.314-.713-2.796-1.16-2.643v.811a5.86 5.86 0 01-3.734 1.259c-1.076.084-3.747-.126-3.733-.965zm-25.938-11.815c-.392 0-.713.559-1.566 1.482a15.97 15.97 0 01-4.391 3.16c-2.796 1.398-8.222 3.552-10.683 4.656-1.524.699-1.398 2.545.126 3.608 1.524 1.063 5.425 1.818 10.026.783 2.503-.559 5.775-2.867 7.83-2.797 2.056.07 5.929.098 7.453-.951 1.524-1.048.923-3.299.489-5.229-.433-1.93-1.146-5.314-1.845-5.174v.657c-.895 1.399-5.468 1.916-7.439.923v-1.118z" fill="#263238"/><path d="M150.803 265.668c-1.58-2.951-1.971-3.077-2.922-3.72-.951-.643-6.698-1.51-9.089-1.706-2.797-.237-3.817.28-3.034 2.699a124.637 124.637 0 007.886 17.702c.755.993.909 1.916 4.069 2.223 3.16.308 6.67.448 7.76.518 1.091.07 2.601.335 1.622-2.881a107.886 107.886 0 00-4.32-10.669c-1.147-2.642-1.972-4.166-1.972-4.166z" fill="#37474F"/><path d="M208.119 274.533c-.07-.923-2.797-11.354-4.195-16.179l-10.236 3.524 2.406 7.593 9.004 9.326a3.786 3.786 0 003.021-4.264z" fill="#FFA8A7"/><path d="M196.052 269.471s-28.218 3.02-31.532 1.999c-3.314-1.02-7.76-4.334-10.151-5.705-2.391-1.37-4.111-1.482-4.111-.908 0 .573 2.041 3.691 2.517 4.977.475 1.287-2.21 1.301-5.705.49-3.496-.811-4.908-2.797-5.831-1.65-.923 1.146 1.943 6.991 7.76 9.187 5.817 2.195 10.138.741 14.948.936 4.81.196 34.44 2.098 41.11 0a5.86 5.86 0 00-2.308-5.677 21.483 21.483 0 00-6.697-3.649z" fill="#FFA8A7"/><path d="M184.823 233.046c4.433 1.468 13.228 2.209 16.067 11.801 2.838 9.592 4.264 15.815 4.264 15.815-1.678 2.237-8.389 4.824-11.466 3.859l-8.865-31.475z" fill="#455A64"/><path d="M193.689 264.521l-3.035-10.767 3.035 15.158v-4.391zm-63.65 22.624c-.14.182-1.329 2.154-1.329 2.154l-5.467 7.83-5.327 7.984a1.401 1.401 0 01-1.553.545l-.363-.125c-1.846-.686-4.614-1.846-8.292-3.538-2.95-1.398-2.797-1.804-2.797-2.307a6.362 6.362 0 010-1.203c.602-1.146 2.461-4.013 4.964-7.634 4.447-6.46 6.586-9.327 7.915-11.187a1.4 1.4 0 011.748-.461c2.391.797 7.243 2.88 9.788 3.915h.111c1.371.741.616 3.971.602 4.027z" fill="#37474F"/><path d="M130.178 286.893l-1.398 2.405-5.341 7.985-5.593 7.788a1.401 1.401 0 01-1.553.545l-.363-.125c-1.846-.686-4.614-1.846-8.292-3.538-2.95-1.398-2.796-1.804-2.796-2.307a6.2 6.2 0 010-1.203c2.796 1.231 11.647 5.426 11.941 5.272.699-.336 6.698-9.956 9.886-14.864 1.594-2.447 2.307-3.482 2.796-4.321a.913.913 0 00.228-.744.933.933 0 00-.423-.654h-.112a2.277 2.277 0 011.188 1.664 2.166 2.166 0 01-.168 2.097z" fill="#37474F"/><path opacity=".1" d="M130.178 286.893l-1.398 2.405-5.341 7.985-5.593 7.788a1.401 1.401 0 01-1.553.545l-.363-.125c-1.846-.686-4.614-1.846-8.292-3.538-2.95-1.398-2.796-1.804-2.796-2.307a6.2 6.2 0 010-1.203c2.796 1.231 11.647 5.426 11.941 5.272.699-.336 6.698-9.956 9.886-14.864 1.594-2.447 2.307-3.482 2.796-4.321a.913.913 0 00.228-.744.933.933 0 00-.423-.654h-.112a2.277 2.277 0 011.188 1.664 2.166 2.166 0 01-.168 2.097z" fill="#000"/><path d="M117.86 281.496l9.816 4.111-10.46 15.549-9.76-4.489 10.404-15.171z" fill="#FAFAFA"/><path d="M115.105 335.679c2.685-.769 6.74-10.752 9.788-22.078 3.048-11.327 4.656-13.829 4.754-17.395.098-3.566-.154-8.25-.154-8.25l-5.313 7.761a14.008 14.008 0 00-1.398-4.293c-.686-1.398-1.972-2.503-3.021-1.664-.559.447.923 2.363.602 6.642a22.31 22.31 0 00.503 5.075l-9.872 23.911 4.111 10.291z" fill="#FFA8A7"/><path d="M75.38 286.097c-3.118-.881-5.761.783-7.23 5.746a194.031 194.031 0 00-5.593 28.497c-.419 3.454-.895 7.649 2.406 7.971 2.516.251 9.788-1.147 11.06-2.405 1.706-1.65 1.398-8.306 1.398-8.306h-3.775s.81-5.244 1.049-6.838c.839-5.355 2.083-12.109 2.083-12.109l-1.398-12.556z" fill="#F28F8F"/><path d="M93.683 281.188l-1.272 11.201-11.047 1.286 1.594-14.864 10.725 2.377z" fill="#FFA8A7"/><path d="M70.038 264.843c.91-10.348 6.516-14.599 10.851-15.633 8.753-2.056 17.395.881 20.974 6.991a15.372 15.372 0 010 12.109c-1.901 4.335-31.783-3.495-31.783-3.495" fill="#263238"/><path d="M102.409 270.408s1.58 4.264 1.16 4.586a6.126 6.126 0 01-2.055.364l.895-4.95z" fill="#FFA8A7"/><path d="M97.696 256.928c2.084 1.79 5.593 5.034 4.657 13.983-1.035 9.257-3.272 11.76-4.782 12.655-1.007.601-5.468-.448-7.537-1.664-2.573-1.524-8.278-5.454-10.012-10.753-2.056-6.236-1.02-13.675 3.482-15.619a14.754 14.754 0 0114.192 1.398z" fill="#FFA8A7"/><path d="M100.269 257.166a16.468 16.468 0 01-5.97 12.99s-1.3-3.37-4.195-2.601c-2.895.769-2.797 4.587-.728 6.656a4.194 4.194 0 004.349 1.189 12.696 12.696 0 01-3.537 6.991 16.425 16.425 0 01-16.5-5.733c-6.39-7.677-4.503-19.87 5.481-23.463a19.968 19.968 0 0121.1 3.971zm-20.233 192.53l4.768 6.627a15.79 15.79 0 01-6.921 1.399c-4.265.168-5.44-1.231-5.593-1.566-.728-1.552.405-4.335.713-6.726l7.033.266z" fill="#263238"/><path d="M84.51 453.122s5.775-.378 9.788-.881c4.014-.504 7.16 1.398 6.223 3.09-.937 1.692-3.146 3.02-6.572 4.195-2.922.993-6.446 1.706-9.508 2.615-3.063.908-5.146 2.027-6.922 1.398-1.986-.685-2.797-1.482-2.67-2.923a62.24 62.24 0 011.607-6.082l8.054-1.412z" fill="#263238"/><path d="M72.29 443.012s.713 6.013.768 7.313c.056 1.3 5.873 1.706 6.992-.657l.182-7.355-7.942.699z" fill="#F28F8F"/><path d="M78.148 446.717l-2.027 9.131s-.21 1.105 4.558 1.818c4.768.713 12.207-2.489 13.48-3.132 1.272-.644 1.398-1.944-3.258-1.692-4.657.251-6.32.279-6.32.279l1.524-4.055-7.957-2.349z" fill="#FFA8A7"/><path d="M72.29 324.479c-3.986 6.195-7.761 11.648-8.572 18.612-1.706 14.71 3.887 31.517 5.076 42.396a19.67 19.67 0 00-3.762 10.613c0 4.502 7.258 46.912 7.258 46.912s5.271 1.608 7.928-.699l4.992-78.024-2.63-9.495-10.29-30.315z" fill="#455A64"/><path d="M85.21 364.288l-2.63-9.494a63.61 63.61 0 01-14.22-5.593s2.699 4.894 10.403 7.579l4.014 12.207.35 27.965 2.083-32.664z" fill="#37474F"/><path d="M72.29 324.479c-2.126 3.468-7.23 9.425-6.139 15.13 1.314 6.991 5.034 11.787 16.43 15.185l10.683 38.691s-5.593 5.215-7.257 10.165c-1.664 4.95-7.859 43.067-7.859 43.067s1.902 3.105 7.915 2.35c0 0 20.974-47.808 22.372-50.884a15.477 15.477 0 001.776-10.389c-.671-5.006-7.802-59.847-7.802-59.847l-30.12-3.468z" fill="#455A64"/><path d="M70.346 289.564a5.31 5.31 0 015.775-3.384c7.453 2.028 19.044 4.699 21.24 5.342 0 0-.993 14.36 7.592 19.422-.405 3.202-2.586 17.003-2.586 17.003s-10.32 5.006-18.807 2.545c-8.488-2.461-11.34-6.013-11.34-6.013l4.195-6.921c-.91-2.251-4.42-9.9-6.684-17.003a20.794 20.794 0 01.615-10.991z" fill="#FFB900"/><path d="M75.38 314.831a74.834 74.834 0 0011.06 5.467 20.834 20.834 0 01-9.9-2.796l-1.16-2.671zm29.392-4.964a15.384 15.384 0 01-7.146-6.711 14.837 14.837 0 007.146 11.074v-4.363z" fill="#E0E0E0"/><path d="M97.43 291.522c4.685 1.398 7.593 1.845 10.124 4.111 3.328 2.992 6.768 19.911 7.467 23.407 1.217 6.055 2.559 12.347 1.245 15.171-.951 2.042-6.125 3.566-8.39-3.034-.476-1.398-.573-2.041-.993-3.3-2.139-6.32-5.355-18.401-5.355-18.401s-6.335-3.496-4.097-17.954z" fill="#FFA8A7"/><path d="M74.722 253.195c-1.663.965-4.67 1.901-6.543 10.641a133.805 133.805 0 00-2.713 22.26c.07 2.713 5.69 10.25 17.548 9.537 11.858-.713 16.165-7.663 16.165-7.663s-5.831-2.377-5.37-12.584c0 0-2.055 4.041-7.69 2.013-5.635-2.027-11.397-24.204-11.397-24.204z" fill="#263238"/></svg>