<svg width="50%" height="51%" viewBox="0 0 50 51" fill="none" xmlns="http://www.w3.org/2000/svg"><g clip-path="url(#clip0_0_31)"><rect y=".83" width="50" height="50" rx="19" fill="#F03E3D"/><path d="M30.571 20.259h.858c.16 0 .285-.125.285-.286V19.4a.282.282 0 00-.285-.285H18.286A.282.282 0 0018 19.4v.572c0 .16.125.286.286.286h.857c0 3.303 1.58 5.696 3.33 6.857-1.75 1.16-3.33 3.553-3.33 6.857h-.857a.282.282 0 00-.286.286v.571c0 .16.125.286.286.286h13.143c.16 0 .285-.125.285-.286v-.571a.282.282 0 00-.285-.286h-.858c0-3.304-1.58-5.697-3.33-6.857 1.75-1.16 3.33-3.554 3.33-6.857zm-1.142 0a7.915 7.915 0 01-.76 3.428h-7.624a7.916 7.916 0 01-.76-3.428h9.144zm-.51 10.857h-8.124c.66-1.723 1.848-2.947 3.035-3.429h2.054c1.187.482 2.375 1.706 3.036 3.429z" fill="#fff"/></g><defs><clipPath id="clip0_0_31"><path fill="#fff" transform="translate(0 .83)" d="M0 0h50v50H0z"/></clipPath></defs></svg>